<svg width="487" height="329" viewBox="0 0 487 329" fill="none" xmlns="http://www.w3.org/2000/svg">
<g clip-path="url(#clip0_24_9)">
<path d="M97.0315 329C150.621 329 194.063 325.796 194.063 321.844C194.063 317.892 150.621 314.689 97.0315 314.689C43.4425 314.689 0 317.892 0 321.844C0 325.796 43.4425 329 97.0315 329Z" fill="#E6E6E6"/>
<path d="M74.1691 72.9994C91.0555 66.0254 112.088 70.444 132.628 73.5107C132.819 69.797 135.136 65.2771 132.709 62.6861C129.761 59.5384 130.032 56.2309 131.806 52.9045C136.343 44.3982 129.843 35.3471 123.28 27.8211C121.8 26.1286 119.931 24.7988 117.823 23.9397C115.715 23.0806 113.428 22.7164 111.147 22.8767L98.9893 23.7199C96.0308 23.9251 93.2073 25.0027 90.8968 26.8086C88.5862 28.6145 86.8988 31.0625 86.0602 33.825C83.1571 37.6587 81.6033 41.4819 82.5816 45.2851C78.2332 48.1705 77.5026 51.6535 79.4566 55.5799C81.1135 58.0522 81.0959 60.4587 79.3812 62.7986C77.1294 65.7817 75.4047 69.1081 74.2778 72.6412L74.1691 72.9994Z" fill="#2F2E41"/>
<path d="M475.46 284.415H131.294C128.234 284.415 125.298 283.235 123.134 281.133C120.97 279.032 119.754 276.182 119.754 273.21C244.514 259.131 366.929 259.131 487 273.21C487 276.182 485.784 279.032 483.62 281.133C481.456 283.235 478.521 284.415 475.46 284.415Z" fill="#2F2E41"/>
<path d="M487 273.869L119.754 273.21L162.317 203.672L162.52 203.342V50.0873C162.52 48.2272 162.897 46.3852 163.63 44.6665C164.363 42.9479 165.438 41.3864 166.793 40.071C168.147 38.7557 169.755 37.7123 171.525 37.0005C173.295 36.2887 175.192 35.9225 177.108 35.9226H427.609C429.525 35.9225 431.422 36.2887 433.192 37.0005C434.962 37.7123 436.57 38.7557 437.925 40.071C439.28 41.3864 440.354 42.9479 441.087 44.6665C441.82 46.3852 442.198 48.2272 442.197 50.0873V204.397L487 273.869Z" fill="#3F3D56"/>
<path d="M176.776 45.8097C175.516 45.8111 174.308 46.2976 173.417 47.1626C172.526 48.0276 172.025 49.2003 172.024 50.4236V190.16C172.025 191.383 172.526 192.556 173.417 193.421C174.308 194.285 175.516 194.772 176.776 194.773H429.979C431.238 194.772 432.446 194.285 433.337 193.42C434.228 192.555 434.729 191.383 434.73 190.16V50.4236C434.729 49.2004 434.228 48.0276 433.337 47.1627C432.446 46.2977 431.238 45.8111 429.979 45.8097H176.776Z" fill="white"/>
<path d="M177.837 213.229C177.447 213.23 177.066 213.338 176.739 213.542C176.411 213.746 176.15 214.037 175.986 214.38L162.872 242.064C162.729 242.365 162.666 242.696 162.69 243.027C162.714 243.358 162.823 243.677 163.007 243.957C163.191 244.236 163.445 244.466 163.744 244.625C164.044 244.784 164.38 244.867 164.721 244.867H440.519C440.867 244.867 441.208 244.781 441.511 244.617C441.814 244.453 442.069 244.216 442.252 243.929C442.434 243.643 442.538 243.315 442.554 242.979C442.569 242.642 442.496 242.307 442.34 242.006L428.085 214.322C427.917 213.993 427.657 213.716 427.335 213.523C427.014 213.33 426.642 213.228 426.264 213.229H177.837Z" fill="#2F2E41"/>
<path d="M302.359 43.5027C304.046 43.5027 305.414 42.1748 305.414 40.5366C305.414 38.8985 304.046 37.5706 302.359 37.5706C300.672 37.5706 299.304 38.8985 299.304 40.5366C299.304 42.1748 300.672 43.5027 302.359 43.5027Z" fill="white"/>
<path d="M275.25 250.14C274.803 250.141 274.367 250.284 274.012 250.549C273.657 250.813 273.401 251.184 273.284 251.603L269.994 263.468C269.913 263.761 269.902 264.068 269.963 264.366C270.023 264.664 270.154 264.944 270.344 265.185C270.534 265.426 270.779 265.621 271.059 265.755C271.339 265.89 271.648 265.96 271.96 265.96H334.524C334.848 265.96 335.168 265.884 335.457 265.74C335.745 265.595 335.994 265.386 336.182 265.129C336.371 264.872 336.493 264.575 336.539 264.263C336.585 263.951 336.554 263.633 336.448 263.335L332.218 251.471C332.079 251.082 331.82 250.746 331.475 250.507C331.13 250.269 330.717 250.141 330.294 250.14H275.25Z" fill="#2F2E41"/>
<path d="M442.197 201.035V203.671H162.317L162.527 203.342V201.035H442.197Z" fill="#2F2E41"/>
<path d="M434.391 92.2784C460.634 92.2784 481.909 71.6212 481.909 46.1392C481.909 20.6572 460.634 0 434.391 0C408.147 0 386.873 20.6572 386.873 46.1392C386.873 71.6212 408.147 92.2784 434.391 92.2784Z" fill="#FF5122"/>
<path d="M454.077 66.2427H414.705C413.985 66.242 413.295 65.964 412.786 65.4697C412.277 64.9754 411.99 64.3052 411.99 63.6062V40.5365C411.99 39.8375 412.277 39.1673 412.786 38.6731C413.295 38.1788 413.985 37.9008 414.705 37.9H454.077C454.797 37.9008 455.487 38.1788 455.996 38.6731C456.505 39.1673 456.791 39.8375 456.792 40.5365V63.6061C456.791 64.3052 456.505 64.9754 455.996 65.4697C455.487 65.964 454.797 66.242 454.077 66.2427ZM414.705 40.5366V63.6062H454.079L454.077 40.5365L414.705 40.5366Z" fill="white"/>
<path d="M446.61 40.5366H422.172V29.9905C422.172 22.3519 427.311 16.8079 434.391 16.8079C441.471 16.8079 446.61 22.3519 446.61 29.9905L446.61 40.5366ZM424.887 37.9001H443.894V29.9905C443.894 23.7812 439.987 19.4444 434.391 19.4444C428.795 19.4444 424.887 23.7812 424.887 29.9905L424.887 37.9001Z" fill="white"/>
<path d="M434.391 54.0488C435.89 54.0488 437.106 52.8684 437.106 51.4123C437.106 49.9562 435.89 48.7758 434.391 48.7758C432.891 48.7758 431.676 49.9562 431.676 51.4123C431.676 52.8684 432.891 54.0488 434.391 54.0488Z" fill="white"/>
<path d="M270.032 123.261C269.379 123.261 268.754 123.512 268.292 123.96C267.831 124.408 267.572 125.016 267.572 125.65C267.572 126.283 267.831 126.891 268.292 127.339C268.754 127.787 269.379 128.038 270.032 128.038H319.939C320.592 128.038 321.218 127.787 321.679 127.339C322.14 126.891 322.4 126.283 322.4 125.65C322.4 125.016 322.14 124.408 321.679 123.96C321.218 123.512 320.592 123.261 319.939 123.261H270.032Z" fill="#E6E6E6"/>
<path d="M161.835 124.227L125.661 142.901L125.203 127.339C137.01 125.426 148.243 122.093 158.63 116.669L162.413 107.593C162.825 106.604 163.495 105.736 164.357 105.075C165.219 104.413 166.244 103.98 167.33 103.819C168.416 103.658 169.527 103.774 170.553 104.156C171.579 104.538 172.485 105.172 173.183 105.996C174.203 107.202 174.713 108.74 174.61 110.298C174.506 111.855 173.796 113.317 172.625 114.385L161.835 124.227Z" fill="#FFB8B8"/>
<path d="M73.4481 232.042C73.1842 231.102 73.1281 230.119 73.2837 229.156C73.4392 228.194 73.8027 227.274 74.3504 226.458L82.2967 214.617C84.1762 211.816 87.0602 209.793 90.389 208.941C93.7178 208.088 97.2542 208.466 100.312 210.002C96.9724 215.522 97.438 220.364 101.465 224.572C95.2133 227.536 89.4349 231.361 84.3092 235.929C83.3735 236.548 82.2989 236.941 81.1749 237.076C80.0509 237.21 78.91 237.082 77.8474 236.702C76.7848 236.322 75.8311 235.7 75.0659 234.89C74.3007 234.079 73.746 233.103 73.4481 232.042Z" fill="#2F2E41"/>
<path d="M163.483 216.559C162.28 218.505 160.583 220.118 158.553 221.244C156.524 222.369 154.231 222.969 151.894 222.987L99.1034 223.375L96.8139 210.481L120.167 203.812L100.477 189.14L121.998 164.687L161.087 200.062C163.372 202.129 164.856 204.896 165.292 207.899C165.728 210.902 165.089 213.959 163.483 216.559Z" fill="#2F2E41"/>
<path d="M90.8612 304.739H78.498C67.3977 230.858 56.0986 156.77 89.4875 129.118L128.867 135.342L123.83 167.799L101.851 192.252L90.8612 304.739Z" fill="#2F2E41"/>
<path d="M101.729 321.475C100.761 321.731 99.7485 321.786 98.7574 321.635C97.7664 321.484 96.8194 321.131 95.9789 320.599L82.5551 318.847C79.6705 317.022 77.5869 314.222 76.7085 310.99C75.8301 307.758 76.2195 304.324 77.8011 301.355C83.486 304.597 88.4728 304.145 92.8063 300.234C95.8683 306.237 100.913 305.871 105.732 310.929C106.37 311.837 106.775 312.881 106.913 313.972C107.052 315.063 106.92 316.171 106.528 317.203C106.137 318.235 105.497 319.161 104.662 319.904C103.827 320.647 102.822 321.185 101.729 321.475Z" fill="#2F2E41"/>
<path d="M120.167 79.7661L97.2718 74.4307C101.074 66.8733 101.387 58.464 99.5612 49.5326L115.13 49.088C115.617 60.1944 117.093 70.5706 120.167 79.7661Z" fill="#FFB8B8"/>
<path d="M126.459 148.729C109.792 159.757 98.0162 149.107 89.0296 132.675C90.2784 122.62 88.2565 110.587 84.5117 97.5128C82.8463 91.746 83.4681 85.5826 86.2543 80.2392C89.0405 74.8959 93.7886 70.761 99.5612 68.6509L119.251 76.6539C135.969 89.8861 139.26 104.219 132.988 119.336L126.459 148.729Z" fill="#FF5122"/>
<path d="M78.498 90.8813L60.1822 100.218L92.6928 118.892L97.2164 129.726C97.5184 130.449 97.6654 131.225 97.6487 132.005C97.632 132.785 97.4518 133.554 97.1191 134.264C96.7865 134.974 96.3083 135.611 95.7138 136.136C95.1193 136.661 94.4208 137.063 93.6611 137.318C92.7975 137.607 91.8767 137.698 90.9707 137.584C90.0648 137.47 89.1984 137.154 88.4393 136.66C87.6802 136.167 87.0491 135.509 86.5953 134.739C86.1416 133.97 85.8776 133.108 85.8239 132.223L85.3665 124.672L44.0459 111.432C42.6537 110.985 41.3843 110.238 40.3339 109.245C39.2834 108.252 38.4794 107.04 37.9829 105.7C37.259 103.748 37.2222 101.618 37.8781 99.6428C38.534 97.668 39.8457 95.9601 41.6078 94.7862L74.8349 72.6523L78.498 90.8813Z" fill="#FFB8B8"/>
<path d="M96.8139 92.6598C89.175 89.4093 82.2288 92.9403 73.4612 95.7721L72.0875 72.2078C80.7934 67.7023 89.0939 66.4875 96.8139 69.9847L96.8139 92.6598Z" fill="#FF5122"/>
<path d="M105.952 60.7603C114.025 60.7603 120.569 54.4057 120.569 46.567C120.569 38.7282 114.025 32.3737 105.952 32.3737C97.8787 32.3737 91.3342 38.7282 91.3342 46.567C91.3342 54.4057 97.8787 60.7603 105.952 60.7603Z" fill="#FFB8B8"/>
<path d="M123.439 44.776C108.966 46.1524 97.9383 43.8541 90.8903 37.3103V32.0403H122.211L123.439 44.776Z" fill="#2F2E41"/>
<path d="M311.217 183.853L311.182 183.85L256.249 178.898L206.296 183.401C204.992 183.518 203.693 183.128 202.685 182.316C201.677 181.505 201.043 180.338 200.922 179.072C200.908 178.925 200.901 178.777 200.901 178.629V63.342C200.896 62.1463 201.353 60.9923 202.183 60.1085C203.014 59.2248 204.155 58.6757 205.383 58.57L256.249 53.9845L256.284 53.9877L311.217 58.9397L361.169 54.4367C362.473 54.3191 363.772 54.7091 364.78 55.5209C365.788 56.3327 366.422 57.4999 366.544 58.7655C366.558 58.9128 366.565 59.0606 366.565 59.2087V174.495C366.57 175.691 366.112 176.845 365.282 177.729C364.452 178.613 363.31 179.162 362.083 179.267L311.217 183.853Z" fill="#3F3D56"/>
<path d="M277.476 96.6348C266.842 89.1196 255.654 81.9933 244.224 75.455L243.651 75.1269V97.3021H278.42L277.476 96.6348ZM244.411 96.5648V76.419C255.284 82.6605 265.93 89.4329 276.083 96.5648L244.411 96.5648ZM331.291 142.207C326.693 137.568 321.975 133.034 317.138 128.606C315.805 127.383 314.463 126.171 313.113 124.969C304.875 117.625 296.365 110.64 287.585 104.016L287.482 103.938H243.651V142.832H331.911L331.291 142.207ZM244.411 142.095V104.675H287.222C295.689 111.066 303.926 117.815 311.933 124.921C313.324 126.154 314.705 127.397 316.076 128.65C320.871 133.022 325.553 137.504 330.123 142.095H244.411ZM331.291 142.207C326.693 137.568 321.975 133.034 317.138 128.606C315.805 127.383 314.463 126.171 313.113 124.969C304.875 117.625 296.365 110.64 287.585 104.016L287.482 103.938H243.651V142.832H331.911L331.291 142.207ZM244.411 142.095V104.675H287.222C295.689 111.066 303.926 117.815 311.933 124.921C313.324 126.154 314.705 127.397 316.076 128.65C320.871 133.022 325.553 137.504 330.123 142.095H244.411ZM277.476 96.6348C266.842 89.1196 255.654 81.9933 244.224 75.455L243.651 75.1269V97.3021H278.42L277.476 96.6348ZM244.411 96.5648V76.419C255.284 82.6605 265.93 89.4329 276.083 96.5648L244.411 96.5648ZM277.476 96.6348C266.842 89.1196 255.654 81.9933 244.224 75.455L243.651 75.1269V97.3021H278.42L277.476 96.6348ZM244.411 96.5648V76.419C255.284 82.6605 265.93 89.4329 276.083 96.5648L244.411 96.5648ZM331.291 142.207C326.693 137.568 321.975 133.034 317.138 128.606C315.805 127.383 314.463 126.171 313.113 124.969C304.875 117.625 296.365 110.64 287.585 104.016L287.482 103.938H243.651V142.832H331.911L331.291 142.207ZM244.411 142.095V104.675H287.222C295.689 111.066 303.926 117.815 311.933 124.921C313.324 126.154 314.705 127.397 316.076 128.65C320.871 133.022 325.553 137.504 330.123 142.095H244.411ZM206.044 149.468V150.206H236.053V160.897H206.044V161.634H236.812V149.468H206.044ZM243.651 168.27V175.741L244.411 175.673V169.008H361.422V168.27L243.651 168.27ZM361.422 150.206V149.468H243.651V161.634H361.422V160.897H244.411V150.206L361.422 150.206ZM290.465 96.5648C275.888 85.6531 260.494 75.8101 244.411 67.1176V59.6521L243.651 59.7203V67.2436L244.236 67.8678C260.254 76.5367 275.585 86.3494 290.104 97.2247L290.206 97.3021H361.422V96.5648L290.465 96.5648ZM236.053 96.5648H206.044V97.3021H236.812V60.336L236.053 60.4042L236.053 96.5648ZM361.422 103.938H298.815L299.634 104.591C307.342 110.746 314.91 117.273 322.339 124.174C323.395 125.155 324.447 126.143 325.496 127.14C330.716 132.089 335.834 137.2 340.85 142.473L341.476 142.832H361.422V142.095H341.524C336.563 136.875 331.493 131.806 326.317 126.888C325.281 125.903 324.242 124.926 323.199 123.955C315.932 117.188 308.509 110.762 300.931 104.675H361.422V103.938ZM206.044 168.27V169.008H236.053V176.425L236.812 176.357V168.27H206.044ZM206.044 103.938V104.675H236.053V142.095H206.044V142.832H236.812V103.938H206.044ZM277.476 96.6348C266.842 89.1196 255.654 81.9933 244.224 75.455L243.651 75.1269V97.3021H278.42L277.476 96.6348ZM244.411 96.5648V76.419C255.284 82.6605 265.93 89.4329 276.083 96.5648L244.411 96.5648ZM331.291 142.207C326.693 137.568 321.975 133.034 317.138 128.606C315.805 127.383 314.463 126.171 313.113 124.969C304.875 117.625 296.365 110.64 287.585 104.016L287.482 103.938H243.651V142.832H331.911L331.291 142.207ZM244.411 142.095V104.675H287.222C295.689 111.066 303.926 117.815 311.933 124.921C313.324 126.154 314.705 127.397 316.076 128.65C320.871 133.022 325.553 137.504 330.123 142.095H244.411ZM277.476 96.6348C266.842 89.1196 255.654 81.9933 244.224 75.455L243.651 75.1269V97.3021H278.42L277.476 96.6348ZM244.411 96.5648V76.419C255.284 82.6605 265.93 89.4329 276.083 96.5648L244.411 96.5648ZM331.291 142.207C326.693 137.568 321.975 133.034 317.138 128.606C315.805 127.383 314.463 126.171 313.113 124.969C304.875 117.625 296.365 110.64 287.585 104.016L287.482 103.938H243.651V142.832H331.911L331.291 142.207ZM244.411 142.095V104.675H287.222C295.689 111.066 303.926 117.815 311.933 124.921C313.324 126.154 314.705 127.397 316.076 128.65C320.871 133.022 325.553 137.504 330.123 142.095H244.411Z" fill="white"/>
<path d="M285.75 102.505C285.75 111.842 268.328 132.642 268.328 132.642C268.328 132.642 250.907 111.842 250.907 102.505C250.907 98.0218 252.742 93.7217 256.01 90.5512C259.277 87.3808 263.708 85.5996 268.328 85.5996C272.949 85.5996 277.38 87.3808 280.647 90.5512C283.914 93.7217 285.75 98.0218 285.75 102.505Z" fill="#FF5122"/>
<path d="M276.293 101.771C276.293 103.299 275.826 104.793 274.95 106.064C274.075 107.335 272.831 108.326 271.376 108.911C269.921 109.496 268.32 109.649 266.775 109.35C265.23 109.052 263.811 108.316 262.697 107.235C261.583 106.155 260.825 104.777 260.518 103.278C260.21 101.779 260.368 100.225 260.971 98.813C261.574 97.4008 262.594 96.1938 263.904 95.3446C265.214 94.4954 266.753 94.0421 268.329 94.0421C269.375 94.0416 270.41 94.2412 271.377 94.6295C272.343 95.0177 273.221 95.5869 273.961 96.3047C274.701 97.0224 275.287 97.8746 275.687 98.8124C276.087 99.7503 276.293 100.755 276.293 101.771Z" fill="white"/>
<path d="M268.328 144.844C270.922 144.844 273.025 142.804 273.025 140.287C273.025 137.77 270.922 135.729 268.328 135.729C265.735 135.729 263.632 137.77 263.632 140.287C263.632 142.804 265.735 144.844 268.328 144.844Z" fill="#FF5122"/>
<path d="M313.324 83.0767C317.159 83.0767 320.268 80.06 320.268 76.3388C320.268 72.6176 317.159 69.601 313.324 69.601C309.49 69.601 306.381 72.6176 306.381 76.3388C306.381 80.06 309.49 83.0767 313.324 83.0767Z" fill="#FF6584"/>
<path d="M335.098 97.1024H301.036C300.993 97.1029 300.951 97.0996 300.909 97.0926L317.018 70.014C317.117 69.8453 317.259 69.705 317.432 69.6074C317.604 69.5098 317.8 69.4584 318 69.4584C318.2 69.4584 318.396 69.5098 318.568 69.6074C318.741 69.705 318.883 69.8453 318.982 70.014L329.793 88.1858L330.311 89.0554L335.098 97.1024Z" fill="white"/>
<path opacity="0.2" d="M335.098 97.1025H323.468L329.177 89.0554L329.588 88.4757L329.793 88.1859L330.311 89.0554L335.098 97.1025Z" fill="black"/>
<path d="M354.063 97.1025H324.602L330.311 89.0555L330.722 88.4758L338.161 77.989C338.649 77.3017 339.822 77.2589 340.396 77.8593C340.434 77.9003 340.47 77.9436 340.503 77.989L354.063 97.1025Z" fill="white"/>
<path d="M356.249 135.274C358.19 135.274 359.763 133.747 359.763 131.864C359.763 129.981 358.19 128.454 356.249 128.454C354.308 128.454 352.735 129.981 352.735 131.864C352.735 133.747 354.308 135.274 356.249 135.274Z" fill="white"/>
<path d="M356.588 142.136H355.868L356.196 131.35L356.588 142.136Z" fill="#CBCBCB"/>
<path d="M356.26 133.395L357.033 132.357L356.249 133.651L356.165 133.508L356.26 133.395Z" fill="#CBCBCB"/>
<path d="M356.175 134.442L355.402 133.405L356.186 134.699L356.27 134.555L356.175 134.442Z" fill="#CBCBCB"/>
<path d="M346.257 132.002C349.123 132.002 351.447 129.747 351.447 126.965C351.447 124.184 349.123 121.929 346.257 121.929C343.391 121.929 341.067 124.184 341.067 126.965C341.067 129.747 343.391 132.002 346.257 132.002Z" fill="white"/>
<path d="M346.757 142.136H345.694L346.179 126.207L346.757 142.136Z" fill="#CBCBCB"/>
<path d="M346.273 129.226L347.414 127.694L346.257 129.605L346.132 129.393L346.273 129.226Z" fill="#CBCBCB"/>
<path d="M346.148 130.773L345.006 129.241L346.163 131.152L346.288 130.94L346.148 130.773Z" fill="#CBCBCB"/>
<path d="M225.76 135.274C227.701 135.274 229.274 133.747 229.274 131.864C229.274 129.981 227.701 128.454 225.76 128.454C223.819 128.454 222.246 129.981 222.246 131.864C222.246 133.747 223.819 135.274 225.76 135.274Z" fill="white"/>
<path d="M226.099 142.136H225.379L225.707 131.35L226.099 142.136Z" fill="#CBCBCB"/>
<path d="M225.771 133.395L226.544 132.357L225.76 133.651L225.676 133.508L225.771 133.395Z" fill="#CBCBCB"/>
<path d="M225.686 134.442L224.913 133.405L225.697 134.699L225.781 134.555L225.686 134.442Z" fill="#CBCBCB"/>
<path d="M215.768 132.002C218.634 132.002 220.958 129.747 220.958 126.965C220.958 124.184 218.634 121.929 215.768 121.929C212.902 121.929 210.578 124.184 210.578 126.965C210.578 129.747 212.902 132.002 215.768 132.002Z" fill="white"/>
<path d="M216.268 142.136H215.205L215.69 126.207L216.268 142.136Z" fill="#CBCBCB"/>
<path d="M215.784 129.226L216.925 127.694L215.768 129.605L215.643 129.393L215.784 129.226Z" fill="#CBCBCB"/>
<path d="M215.659 130.773L214.517 129.241L215.674 131.152L215.799 130.94L215.659 130.773Z" fill="#CBCBCB"/>
</g>
<defs>
<clipPath id="clip0_24_9">
<rect width="487" height="329" fill="white"/>
</clipPath>
</defs>
</svg>
