<svg width="39" height="37" viewBox="0 0 39 37" fill="none" xmlns="http://www.w3.org/2000/svg">
<rect width="39" height="36.0263" rx="5" fill="#4168B1"/>
<path d="M12.457 11.5493V11.3322H25.0895V11.5493H12.457Z" fill="#4168B1" stroke="white"/>
<path d="M12.457 15.2006V14.9835H25.0895V15.2006H12.457Z" fill="#4168B1" stroke="white"/>
<path d="M12.457 18.852V18.6349H21.9912V18.852H12.457Z" fill="#4168B1" stroke="white"/>
<path d="M12.457 22.5032V22.2861H18.8929V22.5032H12.457Z" fill="#4168B1" stroke="white"/>
<path d="M12.457 26.1546V25.9375H18.8929V26.1546H12.457Z" fill="#4168B1" stroke="white"/>
<path d="M30.0469 13.623V14.8149L30.8972 13.9798L33.0255 11.8896L36.2864 15.0921L30.1966 21.0728L30.0469 21.2198V21.4295V31.6315H7.5V3.42102H25.6417L30.0469 7.74726V13.623ZM30.2776 15.5958L29.9273 15.2518L29.5769 15.5958L22.141 22.8985L21.9914 23.0454V23.2552V25.4375V25.9375H22.4914H24.7135H24.9179L25.0638 25.7942L32.4997 18.4916L32.8629 18.1348L32.4997 17.7781L30.2776 15.5958ZM26.5597 4.64188L25.7093 3.80678V4.99862V7.18089V7.68089H26.2093H28.4314H29.6541L28.7817 6.82415L26.5597 4.64188ZM29.3076 31.4144H29.8076V30.9144V22.6466V21.4548L28.9573 22.2899L25.0221 26.1546H21.7521V22.9611L29.6579 15.1969L29.8076 15.0499V14.8401V8.39799V7.89799H29.3076H25.47V4.13813V3.63813H24.97H8.23931H7.73931V4.13813V30.9144V31.4144H8.23931H29.3076ZM32.6752 17.6311L33.0255 17.9751L33.3759 17.6311L35.598 15.4488L35.9612 15.0921L35.598 14.7353L33.3759 12.5531L33.0255 12.209L32.6752 12.5531L30.4531 14.7353L30.0899 15.0921L30.4531 15.4488L32.6752 17.6311Z" fill="#4168B1" stroke="white"/>
</svg>
