<svg width="39" height="37" viewBox="0 0 39 37" fill="none" xmlns="http://www.w3.org/2000/svg">
<rect width="39" height="36.0263" rx="5" fill="#B8B5B5"/>
<path d="M6.75 11.1973H9.25H29.25" stroke="white" stroke-width="2" stroke-linecap="round" stroke-linejoin="round"/>
<path d="M13 11.1973V8.76307C13 8.11748 13.2634 7.49832 13.7322 7.04182C14.2011 6.58532 14.837 6.32886 15.5 6.32886H20.5C21.163 6.32886 21.7989 6.58532 22.2678 7.04182C22.7366 7.49832 23 8.11748 23 8.76307V11.1973M26.75 11.1973V28.2368C26.75 28.937 26.75 30.214 26.75 30.7009C26.25 30.7009 24.913 30.671 24.25 30.671H11.75C11.087 30.671 10 30.671 9.2502 30.671C9.25004 29.9375 9.25 28.8823 9.25 28.2368V11.1973H26.75Z" stroke="white" stroke-width="2" stroke-linecap="round" stroke-linejoin="round"/>
<path d="M14 17.5262V24.8289" stroke="white" stroke-width="2" stroke-linecap="round" stroke-linejoin="round"/>
<path d="M18 15.5789V26.2894" stroke="white" stroke-width="2" stroke-linecap="round" stroke-linejoin="round"/>
<path d="M22 17.5262V24.8289" stroke="white" stroke-width="2" stroke-linecap="round" stroke-linejoin="round"/>
</svg>
