<svg width="62" height="41" viewBox="0 0 62 41" fill="none" xmlns="http://www.w3.org/2000/svg">
<g clip-path="url(#clip0_145_2)">
<path fill-rule="evenodd" clip-rule="evenodd" d="M3.44444 41H58.5556C60.45 41 62 39.4625 62 37.5833C62 35.7042 60.45 34.1667 58.5556 34.1667H3.44444C1.55 34.1667 0 35.7042 0 37.5833C0 39.4625 1.55 41 3.44444 41ZM3.44444 23.9167H58.5556C60.45 23.9167 62 22.3792 62 20.5C62 18.6208 60.45 17.0833 58.5556 17.0833H3.44444C1.55 17.0833 0 18.6208 0 20.5C0 22.3792 1.55 23.9167 3.44444 23.9167ZM0 3.41667C0 5.29583 1.55 6.83333 3.44444 6.83333H58.5556C60.45 6.83333 62 5.29583 62 3.41667C62 1.5375 60.45 0 58.5556 0H3.44444C1.55 0 0 1.5375 0 3.41667Z" fill="#175D83"/>
</g>
<defs>
<clipPath id="clip0_145_2">
<rect width="62" height="41" fill="white"/>
</clipPath>
</defs>
</svg>
