<svg width="14" height="17" viewBox="0 0 14 17" fill="none" xmlns="http://www.w3.org/2000/svg">
<path d="M7.8192 14.75H1.66462V2.25H7.8192C8.28079 2.25 8.58852 1.9375 8.58852 1.46875C8.58852 1 8.28079 0.6875 7.8192 0.6875H0.895299C0.433706 0.6875 0.125977 1 0.125977 1.46875V15.5312C0.125977 16 0.433706 16.3125 0.895299 16.3125H7.8192C8.28079 16.3125 8.58852 16 8.58852 15.5312C8.58852 15.0625 8.28079 14.75 7.8192 14.75Z" fill="#FF5122"/>
<path d="M13.7426 7.95313L10.6653 4.82813C10.3576 4.51563 9.89602 4.51563 9.58829 4.82813C9.28056 5.14062 9.28056 5.60937 9.58829 5.92187L11.3577 7.71875H3.20292C2.74132 7.71875 2.43359 8.03125 2.43359 8.5C2.43359 8.96875 2.74132 9.28125 3.20292 9.28125H11.3577L9.58829 11.0781C9.28056 11.3906 9.28056 11.8594 9.58829 12.1719C9.74216 12.3281 9.97295 12.4062 10.1268 12.4062C10.2807 12.4062 10.5115 12.3281 10.6653 12.1719L13.7426 9.04688C14.0504 8.73438 14.0504 8.26563 13.7426 7.95313Z" fill="#FF5122"/>
</svg>
