<svg width="32" height="32" viewBox="0 0 32 32" fill="none" xmlns="http://www.w3.org/2000/svg">
<path d="M31.3013 10.6006C31.2394 10.5541 31.1676 10.5225 31.0914 10.5084C31.0153 10.4943 30.9369 10.4981 30.8625 10.5194L24.5 12.3369V11C24.5001 10.9226 24.4822 10.8462 24.4477 10.7769C24.4132 10.7076 24.363 10.6472 24.3012 10.6006C24.2394 10.554 24.1676 10.5224 24.0914 10.5083C24.0153 10.4942 23.9369 10.498 23.8625 10.5194L17.5 12.3369V5C17.5 4.86739 17.4473 4.74021 17.3536 4.64644C17.2598 4.55268 17.1326 4.5 17 4.5H12C11.8674 4.5 11.7402 4.55268 11.6464 4.64644C11.5527 4.74021 11.5 4.86739 11.5 5V7.5H1C0.867394 7.5 0.740212 7.55269 0.646444 7.64644C0.552678 7.74019 0.5 7.86738 0.5 8V27C0.5 27.1326 0.552678 27.2598 0.646444 27.3536C0.740212 27.4473 0.867394 27.5 1 27.5H31C31.1326 27.5 31.2598 27.4473 31.3536 27.3536C31.4473 27.2598 31.5 27.1326 31.5 27V11C31.5 10.9226 31.482 10.8462 31.4476 10.7769C31.4131 10.7077 31.363 10.6473 31.3013 10.6006ZM6 26.5H4.5V22.5H6V26.5ZM8.5 26.5H7V22.5H8.5V26.5ZM11.5 26.5H9.5V22C9.5 21.8674 9.44731 21.7402 9.35356 21.6464C9.25981 21.5527 9.13262 21.5 9 21.5H4C3.86739 21.5 3.74021 21.5527 3.64644 21.6464C3.55268 21.7402 3.5 21.8674 3.5 22V26.5H1.5V8.5H11.5V26.5ZM16.5 26.5H12.5V23.5H16.5V26.5ZM16.5 22.5H12.5V22H16.5V22.5ZM16.5 21H12.5V9H16.5V21ZM16.5 8H12.5V7.5H16.5V8ZM16.5 6.5H12.5V5.5H16.5V6.5ZM21 26.5H20V24H21V26.5ZM23.5 26.5H22V23.5C22 23.3674 21.9473 23.2402 21.8536 23.1464C21.7598 23.0527 21.6326 23 21.5 23H19.5C19.3674 23 19.2402 23.0527 19.1464 23.1464C19.0527 23.2402 19 23.3674 19 23.5V26.5H17.5V13.3769L23.5 11.6631V26.5ZM28 26.5H27V24H28V26.5ZM30.5 26.5H29V23.5C29 23.3674 28.9473 23.2402 28.8536 23.1464C28.7598 23.0527 28.6326 23 28.5 23H26.5C26.3674 23 26.2402 23.0527 26.1464 23.1464C26.0527 23.2402 26 23.3674 26 23.5V26.5H24.5V13.3769L30.5 11.6631V26.5Z" fill="white"/>
<path d="M25.5 20.5H29.5C29.6326 20.5 29.7598 20.4473 29.8536 20.3536C29.9473 20.2598 30 20.1326 30 20V18C30 17.8674 29.9473 17.7402 29.8536 17.6464C29.7598 17.5527 29.6326 17.5 29.5 17.5H25.5C25.3674 17.5 25.2402 17.5527 25.1464 17.6464C25.0527 17.7402 25 17.8674 25 18V20C25 20.1326 25.0527 20.2598 25.1464 20.3536C25.2402 20.4473 25.3674 20.5 25.5 20.5ZM26 18.5H29V19.5H26V18.5Z" fill="white"/>
<path d="M25.5 17H29.5C29.6326 17 29.7598 16.9473 29.8536 16.8536C29.9473 16.7598 30 16.6326 30 16.5V14.5C30 14.3674 29.9473 14.2402 29.8536 14.1464C29.7598 14.0527 29.6326 14 29.5 14H25.5C25.3674 14 25.2402 14.0527 25.1464 14.1464C25.0527 14.2402 25 14.3674 25 14.5V16.5C25 16.6326 25.0527 16.7598 25.1464 16.8536C25.2402 16.9473 25.3674 17 25.5 17ZM26 15H29V16H26V15Z" fill="white"/>
<path d="M22.5 20.5C22.6326 20.5 22.7598 20.4473 22.8536 20.3536C22.9473 20.2598 23 20.1326 23 20V18C23 17.8674 22.9473 17.7402 22.8536 17.6464C22.7598 17.5527 22.6326 17.5 22.5 17.5H18.5C18.3674 17.5 18.2402 17.5527 18.1464 17.6464C18.0527 17.7402 18 17.8674 18 18V20C18 20.1326 18.0527 20.2598 18.1464 20.3536C18.2402 20.4473 18.3674 20.5 18.5 20.5H22.5ZM19 18.5H22V19.5H19V18.5Z" fill="white"/>
<path d="M18.5 17H22.5C22.6326 17 22.7598 16.9473 22.8536 16.8536C22.9473 16.7598 23 16.6326 23 16.5V14.5C23 14.3674 22.9473 14.2402 22.8536 14.1464C22.7598 14.0527 22.6326 14 22.5 14H18.5C18.3674 14 18.2402 14.0527 18.1464 14.1464C18.0527 14.2402 18 14.3674 18 14.5V16.5C18 16.6326 18.0527 16.7598 18.1464 16.8536C18.2402 16.9473 18.3674 17 18.5 17ZM19 15H22V16H19V15Z" fill="white"/>
<path d="M10.5 21C10.6326 21 10.7598 20.9473 10.8536 20.8536C10.9473 20.7598 11 20.6326 11 20.5V19C11 18.8674 10.9473 18.7402 10.8536 18.6464C10.7598 18.5527 10.6326 18.5 10.5 18.5V16C10.5 15.8674 10.4473 15.7402 10.3536 15.6464C10.2598 15.5527 10.1326 15.5 10 15.5H3C2.86739 15.5 2.74021 15.5527 2.64644 15.6464C2.55268 15.7402 2.5 15.8674 2.5 16V18.5C2.36739 18.5 2.24021 18.5527 2.14644 18.6464C2.05268 18.7402 2 18.8674 2 19V20.5C2 20.6326 2.05268 20.7598 2.14644 20.8536C2.24021 20.9473 2.36739 21 2.5 21H10.5ZM10 20H3V19.5H10V20ZM3.5 16.5H9.5V18.5H3.5V16.5Z" fill="white"/>
<path d="M2.5 15H10.5C10.6326 15 10.7598 14.9473 10.8536 14.8536C10.9473 14.7598 11 14.6326 11 14.5V13C11 12.8674 10.9473 12.7402 10.8536 12.6464C10.7598 12.5527 10.6326 12.5 10.5 12.5V10C10.5 9.86738 10.4473 9.74019 10.3536 9.64644C10.2598 9.55269 10.1326 9.5 10 9.5H3C2.86739 9.5 2.74021 9.55269 2.64644 9.64644C2.55268 9.74019 2.5 9.86738 2.5 10V12.5C2.36739 12.5 2.24021 12.5527 2.14644 12.6464C2.05268 12.7402 2 12.8674 2 13V14.5C2 14.6326 2.05268 14.7598 2.14644 14.8536C2.24021 14.9473 2.36739 15 2.5 15ZM10 14H3V13.5H10V14ZM3.5 10.5H9.5V12.5H3.5V10.5Z" fill="white"/>
</svg>
