<svg width="28" height="28" viewBox="0 0 28 28" fill="none" xmlns="http://www.w3.org/2000/svg">
<path d="M25.9018 8.4967L20.2143 5.91152C20.042 5.83321 19.8438 5.83321 19.6714 5.91152L17.7989 6.76267C17.8711 6.95496 17.8731 7.17305 17.7602 7.37933C17.6038 7.66524 17.4027 7.91899 17.1709 8.14233C17.1437 8.18827 17.1151 8.23355 17.0864 8.27839C17.0337 8.38449 16.9821 8.49102 16.9322 8.59821L19.9431 7.2297L24.9743 9.51652V23.3277L20.2146 21.1643C20.0422 21.086 19.844 21.086 19.6716 21.1643L14.2556 23.6261L8.83934 21.1645C8.75315 21.1254 8.6604 21.1057 8.56787 21.1057C8.47534 21.1057 8.38259 21.1254 8.2964 21.1645L3.53662 23.328V9.51674L8.56787 7.22992L11.3493 8.49408C11.1787 8.26921 11.0043 8.03164 10.7974 7.78949C10.5161 7.46005 10.5692 7.06477 10.7711 6.78958L8.83934 5.91152C8.66697 5.83321 8.46878 5.83321 8.2964 5.91152L2.6089 8.4967C2.37462 8.60324 2.22412 8.83686 2.22412 9.09411V24.3469C2.22412 24.57 2.33743 24.7778 2.52512 24.8988C2.71281 25.0195 2.94906 25.0368 3.15184 24.9443L8.56787 22.4825L13.9839 24.9443C14.1563 25.0226 14.3545 25.0226 14.5268 24.9443L19.9429 22.4825L25.3589 24.9443C25.4455 24.9837 25.5381 25.0031 25.6304 25.0031C25.7544 25.0031 25.878 24.9679 25.9856 24.8988C26.1733 24.778 26.2866 24.57 26.2866 24.3469V9.09411C26.2866 8.83686 26.1361 8.60324 25.9018 8.4967Z" fill="white"/>
<path d="M2.88088 20.1902C2.86885 20.1902 2.85682 20.1895 2.84457 20.1887C2.60417 20.1688 2.42523 19.9588 2.44426 19.7184C2.44557 19.7026 2.47685 19.3259 2.63457 18.7766C2.70129 18.5443 2.9441 18.4105 3.17576 18.4767C3.40807 18.5435 3.54217 18.7858 3.47567 19.0179C3.3442 19.4762 3.31663 19.786 3.31642 19.789C3.29695 20.0174 3.10576 20.1902 2.88088 20.1902Z" fill="white"/>
<path d="M18.6303 19.9721C18.0222 19.9721 17.4921 19.8953 17.0098 19.738C16.7801 19.663 16.6548 19.416 16.7296 19.1863C16.8046 18.9566 17.0524 18.8315 17.2813 18.9061C17.6746 19.0345 18.1158 19.0969 18.6303 19.0971C18.6719 19.0971 18.713 19.0962 18.7534 19.094C18.9945 19.0809 19.2001 19.2679 19.2119 19.5094C19.224 19.7507 19.038 19.9561 18.7965 19.9679C18.7421 19.9708 18.6865 19.9721 18.6303 19.9721ZM20.2915 19.3871C20.1635 19.3871 20.0364 19.3314 19.95 19.2237C19.7986 19.0354 19.8286 18.76 20.0169 18.6086C20.3435 18.3461 20.6467 17.9784 20.9707 17.4514C21.0971 17.2458 21.3664 17.1813 21.5725 17.3079C21.7783 17.4346 21.8424 17.7041 21.716 17.9097C21.3378 18.5246 20.9722 18.9634 20.5649 19.2907C20.4844 19.3554 20.3877 19.3871 20.2915 19.3871ZM15.7568 18.8974C15.6446 18.8974 15.5326 18.8545 15.447 18.7687C15.0351 18.3557 14.7134 17.8754 14.3924 17.3786C14.2614 17.1756 14.3198 16.9048 14.5228 16.7737C14.7256 16.6425 14.9966 16.7011 15.1277 16.9041C15.433 17.3775 15.7146 17.7979 16.0665 18.151C16.2372 18.3221 16.2367 18.599 16.0657 18.7696C15.9804 18.8549 15.8686 18.8974 15.7568 18.8974ZM3.71132 17.8187C3.63476 17.8187 3.55732 17.7986 3.48688 17.7564C3.27951 17.6321 3.21235 17.3635 3.33638 17.1561C3.64438 16.6421 4.01866 16.1774 4.44851 15.7751C4.62504 15.6102 4.90176 15.6196 5.06691 15.7957C5.23185 15.9722 5.22266 16.249 5.04635 16.4141C4.67579 16.7608 4.35291 17.1618 4.08691 17.6059C4.0051 17.7428 3.86007 17.8187 3.71132 17.8187ZM22.1362 16.662C22.0682 16.662 21.9993 16.646 21.9347 16.6125C21.7204 16.501 21.6368 16.2369 21.7481 16.0226C22.0084 15.5218 22.2898 14.9946 22.6137 14.539C22.7539 14.3419 23.0269 14.2962 23.2238 14.436C23.4207 14.5762 23.4669 14.8492 23.3269 15.0461C23.0353 15.456 22.7708 15.9526 22.5247 16.4259C22.4466 16.576 22.2941 16.662 22.1362 16.662ZM13.8029 16.2282C13.6806 16.2282 13.559 16.1772 13.4724 16.0777C13.118 15.6699 12.7518 15.3803 12.3198 15.1659C12.1032 15.0585 12.0149 14.796 12.1223 14.5797C12.2297 14.3629 12.4919 14.2747 12.7085 14.3821C13.2403 14.646 13.7062 15.0128 14.1328 15.5039C14.2914 15.6863 14.2719 15.9626 14.0895 16.121C14.0068 16.193 13.9046 16.2282 13.8029 16.2282ZM6.09898 15.5826C5.94082 15.5826 5.78813 15.4965 5.71026 15.3462C5.59913 15.1318 5.68291 14.8676 5.89751 14.7564C6.39823 14.497 6.95079 14.2903 7.53988 14.1417C7.77438 14.0836 8.01194 14.2249 8.07101 14.4591C8.13007 14.6934 7.98788 14.9312 7.7536 14.9903C7.22991 15.1222 6.74101 15.3048 6.30001 15.5332C6.23548 15.5669 6.16679 15.5826 6.09898 15.5826ZM10.9331 14.7674C10.9165 14.7674 10.8997 14.7665 10.8828 14.7645C10.6374 14.7365 10.3738 14.7221 10.099 14.7221C9.82954 14.7199 9.5666 14.7311 9.31176 14.749C9.06873 14.7661 8.86157 14.5841 8.84473 14.3432C8.82788 14.1021 9.00944 13.893 9.25051 13.8762C9.52569 13.8569 9.80963 13.8429 10.0993 13.8473C10.407 13.8473 10.7043 13.8635 10.9826 13.8954C11.2225 13.923 11.3949 14.14 11.3674 14.38C11.3418 14.6029 11.1525 14.7674 10.9331 14.7674Z" fill="white"/>
<path d="M24.2307 14.1232C24.0596 14.1232 23.8973 14.0223 23.8271 13.8548C23.7337 13.6319 23.8385 13.3757 24.0614 13.2821C24.3788 13.1489 24.7227 13.0815 25.0834 13.0815C25.3249 13.0815 25.5209 13.2775 25.5209 13.519C25.5209 13.7605 25.3249 13.9565 25.0834 13.9565C24.8362 13.9565 24.6124 13.9998 24.3998 14.089C24.3445 14.1122 24.2871 14.1232 24.2307 14.1232Z" fill="white"/>
<path d="M8.56787 22.1992C8.32637 22.1992 8.13037 22.0032 8.13037 21.7617V6.84711C8.13037 6.60561 8.32637 6.40961 8.56787 6.40961C8.80937 6.40961 9.00537 6.60561 9.00537 6.84711V21.7619C9.00537 22.0034 8.80937 22.1992 8.56787 22.1992Z" fill="white"/>
<path d="M14.2554 24.5659C14.0137 24.5659 13.8179 24.3699 13.8179 24.1284V12.0971C13.8179 11.8556 14.0137 11.6596 14.2554 11.6596C14.4969 11.6596 14.6929 11.8556 14.6929 12.0971V24.1284C14.6929 24.3699 14.4969 24.5659 14.2554 24.5659Z" fill="white"/>
<path d="M19.9429 22.1992C19.7012 22.1992 19.5054 22.0032 19.5054 21.7617V6.84711C19.5054 6.60561 19.7012 6.40961 19.9429 6.40961C20.1844 6.40961 20.3804 6.60561 20.3804 6.84711V21.7619C20.3804 22.0034 20.1844 22.1992 19.9429 22.1992Z" fill="white"/>
<path d="M14.3646 13.0327C14.1673 13.0327 13.9803 12.9439 13.8558 12.7907C13.4196 12.2552 9.59546 7.48802 9.59546 5.05355C9.59546 2.42374 11.7348 0.284363 14.3646 0.284363C16.9942 0.284363 19.1338 2.42374 19.1338 5.05355C19.1338 7.48802 15.3096 12.255 14.8735 12.7907C14.749 12.9439 14.562 13.0327 14.3646 13.0327ZM14.3646 1.59708C12.4587 1.59708 10.908 3.1478 10.908 5.05377C10.908 6.38246 12.8561 9.35811 14.3644 11.3183C15.8729 9.35746 17.8211 6.38136 17.8211 5.05377C17.8211 3.1478 16.2706 1.59708 14.3646 1.59708Z" fill="white"/>
<path d="M14.3646 6.99586C13.2936 6.99586 12.4224 6.12457 12.4224 5.05379C12.4224 3.98279 13.2936 3.11151 14.3646 3.11151C15.4356 3.11151 16.3069 3.98279 16.3069 5.05379C16.3069 6.12457 15.4356 6.99586 14.3646 6.99586ZM14.3646 3.98651C13.7762 3.98651 13.2974 4.46514 13.2974 5.05379C13.2974 5.64223 13.776 6.12086 14.3646 6.12086C14.9531 6.12086 15.4319 5.64201 15.4319 5.05379C15.4319 4.46514 14.9531 3.98651 14.3646 3.98651Z" fill="white"/>
</svg>
