<svg width="25" height="25" viewBox="0 0 25 25" fill="none" xmlns="http://www.w3.org/2000/svg">
<path d="M16.5434 13.5395L16.1156 13.8144L16.5945 13.9853C21.1616 15.6157 24.4462 19.8101 24.5549 24.75H22.9873C22.8497 19.2051 18.1473 14.7497 12.4038 14.7497C6.65968 14.7497 1.958 19.2057 1.82041 24.75H0.252717C0.360178 19.8101 3.64477 15.6157 8.21188 13.9853L8.69084 13.8143L8.26292 13.5395C6.2358 12.2377 4.90111 10.016 4.90111 7.49987C4.90111 3.51005 8.2587 0.25 12.4032 0.25C16.5477 0.25 19.9053 3.51005 19.9053 7.49987C19.9053 10.0154 18.5699 12.2377 16.5434 13.5395ZM6.46775 7.49923C6.46775 10.6779 9.13749 13.249 12.4025 13.249C15.6675 13.249 18.3373 10.6779 18.3373 7.49923C18.3373 4.32058 15.6669 1.74941 12.4025 1.74941C9.13817 1.74941 6.46775 4.32058 6.46775 7.49923Z" fill="white" stroke="white" stroke-width="0.5"/>
</svg>
