<svg width="44" height="35" viewBox="0 0 44 35" fill="none" xmlns="http://www.w3.org/2000/svg">
<g clip-path="url(#clip0_28_677)">
<path d="M29.2997 34.4737L29.2904 34.4729L14.7003 33.1734L1.43307 34.3551C1.08667 34.3859 0.741672 34.2836 0.473975 34.0705C0.206279 33.8575 0.0378112 33.5512 0.00563351 33.2191C0.0018883 33.1805 1.41985e-05 33.1417 1.09443e-05 33.1028V2.85029C-0.00132818 2.53652 0.120267 2.2337 0.340722 2.00179C0.561178 1.76988 0.86442 1.62579 1.19041 1.59805L14.7003 0.394775L14.7097 0.395625L29.2997 1.69508L42.5669 0.513435C42.9133 0.482582 43.2583 0.584927 43.526 0.797955C43.7937 1.01098 43.9622 1.31724 43.9944 1.64936C43.9981 1.68803 44 1.7268 44 1.76568V32.0182C44.0013 32.332 43.8797 32.6348 43.6593 32.8667C43.4388 33.0986 43.1356 33.2427 42.8096 33.2704L29.2997 34.4737Z" fill="#3F3D56"/>
<path d="M20.3384 11.5868C17.5141 9.61468 14.5425 7.74466 11.5069 6.02893L11.3545 5.94283V11.7619H20.5891L20.3384 11.5868ZM11.5563 11.5684V6.28191C14.4442 7.91976 17.272 9.69691 19.9686 11.5684L11.5563 11.5684ZM34.6317 23.5456C33.4103 22.3281 32.1572 21.1383 30.8726 19.9763C30.5184 19.6556 30.1621 19.3374 29.8035 19.0219C27.6155 17.0948 25.3554 15.262 23.0234 13.5235L22.9961 13.5032H11.3545V23.7095H34.7962L34.6317 23.5456ZM11.5563 23.5161V13.6967H22.927C25.1756 15.3737 27.3634 17.1446 29.4902 19.0093C29.8595 19.3329 30.2263 19.6591 30.5906 19.9879C31.8639 21.1352 33.1076 22.3113 34.3214 23.5161H11.5563ZM34.6317 23.5456C33.4103 22.3281 32.1572 21.1383 30.8726 19.9763C30.5184 19.6556 30.1621 19.3374 29.8035 19.0219C27.6155 17.0948 25.3554 15.262 23.0234 13.5235L22.9961 13.5032H11.3545V23.7095H34.7962L34.6317 23.5456ZM11.5563 23.5161V13.6967H22.927C25.1756 15.3737 27.3634 17.1446 29.4902 19.0093C29.8595 19.3329 30.2263 19.6591 30.5906 19.9879C31.8639 21.1352 33.1076 22.3113 34.3214 23.5161H11.5563ZM20.3384 11.5868C17.5141 9.61468 14.5425 7.74466 11.5069 6.02893L11.3545 5.94283V11.7619H20.5891L20.3384 11.5868ZM11.5563 11.5684V6.28191C14.4442 7.91976 17.272 9.69691 19.9686 11.5684L11.5563 11.5684ZM20.3384 11.5868C17.5141 9.61468 14.5425 7.74466 11.5069 6.02893L11.3545 5.94283V11.7619H20.5891L20.3384 11.5868ZM11.5563 11.5684V6.28191C14.4442 7.91976 17.272 9.69691 19.9686 11.5684L11.5563 11.5684ZM34.6317 23.5456C33.4103 22.3281 32.1572 21.1383 30.8726 19.9763C30.5184 19.6556 30.1621 19.3374 29.8035 19.0219C27.6155 17.0948 25.3554 15.262 23.0234 13.5235L22.9961 13.5032H11.3545V23.7095H34.7962L34.6317 23.5456ZM11.5563 23.5161V13.6967H22.927C25.1756 15.3737 27.3634 17.1446 29.4902 19.0093C29.8595 19.3329 30.2263 19.6591 30.5906 19.9879C31.8639 21.1352 33.1076 22.3113 34.3214 23.5161H11.5563ZM1.36621 25.4509V25.6444H9.33649V28.4499H1.36621V28.6434H9.53829V25.4509H1.36621ZM11.3545 30.3847V32.3452L11.5563 32.3273V30.5782H42.6343V30.3847L11.3545 30.3847ZM42.6343 25.6444V25.4509H11.3545V28.6434H42.6343V28.4499H11.5563V25.6444L42.6343 25.6444ZM23.7882 11.5684C19.9167 8.70503 15.8281 6.12212 11.5563 3.84111V1.88208L11.3545 1.89998V3.87417L11.5099 4.03798C15.7643 6.31279 19.8363 8.88775 23.6924 11.7416L23.7196 11.7619H42.6343V11.5684L23.7882 11.5684ZM9.33648 11.5684H1.36621V11.7619H9.53829V2.06154L9.33649 2.07943L9.33648 11.5684ZM42.6343 13.5032H26.0061L26.2235 13.6745C28.2708 15.2896 30.2809 17.0026 32.2539 18.8134C32.5344 19.0707 32.8139 19.3302 33.0924 19.5917C34.4788 20.8905 35.8382 22.2316 37.1704 23.6152L37.3368 23.7095H42.6343V23.5161H37.3495C36.0317 22.1462 34.6853 20.816 33.3104 19.5254C33.0354 19.2671 32.7595 19.0106 32.4825 18.7559C30.5522 16.9802 28.5807 15.2938 26.5681 13.6967H42.6343V13.5032ZM1.36621 30.3847V30.5782H9.33649V32.5247L9.53829 32.5068V30.3847H1.36621ZM1.36621 13.5032V13.6967H9.33649V23.5161H1.36621V23.7095H9.53829V13.5032H1.36621ZM20.3384 11.5868C17.5141 9.61468 14.5425 7.74466 11.5069 6.02893L11.3545 5.94283V11.7619H20.5891L20.3384 11.5868ZM11.5563 11.5684V6.28191C14.4442 7.91976 17.272 9.69691 19.9686 11.5684L11.5563 11.5684ZM34.6317 23.5456C33.4103 22.3281 32.1572 21.1383 30.8726 19.9763C30.5184 19.6556 30.1621 19.3374 29.8035 19.0219C27.6155 17.0948 25.3554 15.262 23.0234 13.5235L22.9961 13.5032H11.3545V23.7095H34.7962L34.6317 23.5456ZM11.5563 23.5161V13.6967H22.927C25.1756 15.3737 27.3634 17.1446 29.4902 19.0093C29.8595 19.3329 30.2263 19.6591 30.5906 19.9879C31.8639 21.1352 33.1076 22.3113 34.3214 23.5161H11.5563ZM20.3384 11.5868C17.5141 9.61468 14.5425 7.74466 11.5069 6.02893L11.3545 5.94283V11.7619H20.5891L20.3384 11.5868ZM11.5563 11.5684V6.28191C14.4442 7.91976 17.272 9.69691 19.9686 11.5684L11.5563 11.5684ZM34.6317 23.5456C33.4103 22.3281 32.1572 21.1383 30.8726 19.9763C30.5184 19.6556 30.1621 19.3374 29.8035 19.0219C27.6155 17.0948 25.3554 15.262 23.0234 13.5235L22.9961 13.5032H11.3545V23.7095H34.7962L34.6317 23.5456ZM11.5563 23.5161V13.6967H22.927C25.1756 15.3737 27.3634 17.1446 29.4902 19.0093C29.8595 19.3329 30.2263 19.6591 30.5906 19.9879C31.8639 21.1352 33.1076 22.3113 34.3214 23.5161H11.5563Z" fill="white"/>
<path d="M22.5359 13.1272C22.5359 15.5773 17.9088 21.0354 17.9088 21.0354C17.9088 21.0354 13.2817 15.5773 13.2817 13.1272C13.2817 11.9506 13.7692 10.8222 14.637 9.99028C15.5047 9.15831 16.6816 8.69092 17.9088 8.69092C19.136 8.69092 20.3129 9.15831 21.1806 9.99028C22.0484 10.8222 22.5359 11.9506 22.5359 13.1272Z" fill="#FF5122"/>
<path d="M20.0239 12.9344C20.0239 13.3355 19.8999 13.7276 19.6674 14.0611C19.435 14.3946 19.1047 14.6546 18.7182 14.808C18.3316 14.9615 17.9063 15.0017 17.496 14.9235C17.0857 14.8452 16.7088 14.6521 16.413 14.3684C16.1172 14.0848 15.9157 13.7234 15.8341 13.33C15.7525 12.9366 15.7944 12.5289 15.9545 12.1583C16.1146 11.7877 16.3857 11.471 16.7335 11.2482C17.0814 11.0253 17.4903 10.9064 17.9087 10.9064C18.1865 10.9062 18.4616 10.9586 18.7183 11.0605C18.975 11.1624 19.2082 11.3117 19.4047 11.5001C19.6011 11.6884 19.7569 11.9121 19.8632 12.1582C19.9694 12.4043 20.0241 12.668 20.0239 12.9344Z" fill="white"/>
<path d="M17.9084 24.2373C18.5973 24.2373 19.1557 23.7019 19.1557 23.0415C19.1557 22.381 18.5973 21.8456 17.9084 21.8456C17.2196 21.8456 16.6611 22.381 16.6611 23.0415C16.6611 23.7019 17.2196 24.2373 17.9084 24.2373Z" fill="#FF5122"/>
<path d="M29.8593 8.02886C30.8777 8.02886 31.7034 7.23726 31.7034 6.26077C31.7034 5.28428 30.8777 4.49268 29.8593 4.49268C28.8408 4.49268 28.0151 5.28428 28.0151 6.26077C28.0151 7.23726 28.8408 8.02886 29.8593 8.02886Z" fill="#FF6584"/>
<path d="M35.6425 11.7094H26.5958C26.5845 11.7096 26.5732 11.7087 26.562 11.7069L30.8407 4.60112C30.8668 4.55686 30.9047 4.52005 30.9505 4.49443C30.9963 4.46882 31.0484 4.45532 31.1014 4.45532C31.1545 4.45532 31.2066 4.46882 31.2524 4.49443C31.2982 4.52005 31.3361 4.55686 31.3622 4.60112L34.2337 9.36962L34.3713 9.59779L35.6425 11.7094Z" fill="white"/>
<path opacity="0.2" d="M35.6425 11.7094H32.5537L34.07 9.59778L34.1791 9.44568L34.2337 9.36963L34.3712 9.59778L35.6425 11.7094Z" fill="black"/>
<path d="M40.6797 11.7095H32.855L34.3712 9.59784L34.4804 9.44572L36.4562 6.69386C36.5857 6.5135 36.8974 6.50227 37.0497 6.65984C37.0599 6.67059 37.0694 6.68195 37.0781 6.69386L40.6797 11.7095Z" fill="white"/>
<path d="M41.26 21.7261C41.7755 21.7261 42.1933 21.3255 42.1933 20.8313C42.1933 20.337 41.7755 19.9364 41.26 19.9364C40.7445 19.9364 40.3267 20.337 40.3267 20.8313C40.3267 21.3255 40.7445 21.7261 41.26 21.7261Z" fill="white"/>
<path d="M41.3503 23.5267H41.1592L41.2463 20.6965L41.3503 23.5267Z" fill="#CBCBCB"/>
<path d="M41.2631 21.2328L41.4683 20.9606L41.2602 21.3002L41.2378 21.2625L41.2631 21.2328Z" fill="#CBCBCB"/>
<path d="M41.2404 21.5078L41.0352 21.2356L41.2432 21.5752L41.2657 21.5375L41.2404 21.5078Z" fill="#CBCBCB"/>
<path d="M38.6065 20.8674C39.3678 20.8674 39.985 20.2757 39.985 19.5458C39.985 18.8158 39.3678 18.2241 38.6065 18.2241C37.8452 18.2241 37.228 18.8158 37.228 19.5458C37.228 20.2757 37.8452 20.8674 38.6065 20.8674Z" fill="white"/>
<path d="M38.7394 23.5267H38.457L38.5858 19.3468L38.7394 23.5267Z" fill="#CBCBCB"/>
<path d="M38.6106 20.1389L38.9137 19.7369L38.6064 20.2385L38.5732 20.1828L38.6106 20.1389Z" fill="#CBCBCB"/>
<path d="M38.5771 20.545L38.2739 20.1429L38.5812 20.6445L38.6144 20.5888L38.5771 20.545Z" fill="#CBCBCB"/>
<path d="M6.60278 21.7261C7.11825 21.7261 7.53612 21.3255 7.53612 20.8313C7.53612 20.337 7.11825 19.9364 6.60278 19.9364C6.08731 19.9364 5.66943 20.337 5.66943 20.8313C5.66943 21.3255 6.08731 21.7261 6.60278 21.7261Z" fill="white"/>
<path d="M6.69264 23.5267H6.50146L6.5886 20.6965L6.69264 23.5267Z" fill="#CBCBCB"/>
<path d="M6.60534 21.2328L6.8106 20.9606L6.60253 21.3002L6.58008 21.2625L6.60534 21.2328Z" fill="#CBCBCB"/>
<path d="M6.58319 21.5078L6.37793 21.2356L6.58599 21.5752L6.60845 21.5375L6.58319 21.5078Z" fill="#CBCBCB"/>
<path d="M3.94878 20.8674C4.71009 20.8674 5.32725 20.2757 5.32725 19.5458C5.32725 18.8158 4.71009 18.2241 3.94878 18.2241C3.18747 18.2241 2.57031 18.8158 2.57031 19.5458C2.57031 20.2757 3.18747 20.8674 3.94878 20.8674Z" fill="white"/>
<path d="M4.08164 23.5267H3.79932L3.92806 19.3468L4.08164 23.5267Z" fill="#CBCBCB"/>
<path d="M3.95287 20.1389L4.25594 19.7369L3.94872 20.2385L3.91553 20.1828L3.95287 20.1389Z" fill="#CBCBCB"/>
<path d="M3.91983 20.545L3.6167 20.1429L3.92398 20.6445L3.95718 20.5888L3.91983 20.545Z" fill="#CBCBCB"/>
</g>
<defs>
<clipPath id="clip0_28_677">
<rect width="44" height="34.0789" fill="white" transform="translate(0 0.394775)"/>
</clipPath>
</defs>
</svg>
